<?xml version="1.0" standalone="no"?>
<!DOCTYPE svg PUBLIC "-//W3C//DTD SVG 20010904//EN"
 "http://www.w3.org/TR/2001/REC-SVG-20010904/DTD/svg10.dtd">
<svg version="1.0" xmlns="http://www.w3.org/2000/svg"
 width="430.000000pt" height="344.000000pt" viewBox="0 0 430.000000 344.000000"
 preserveAspectRatio="xMidYMid meet">

<g transform="translate(0.000000,344.000000) scale(0.100000,-0.100000)"
fill="#000000" stroke="none">
<path d="M2050 2980 c0 -5 8 -10 19 -10 25 0 35 -14 66 -95 32 -84 38 -97 62
-155 11 -25 30 -73 43 -107 12 -35 27 -63 32 -63 5 0 16 17 24 38 17 40 40 91
99 217 21 44 44 94 51 112 10 23 24 35 47 42 29 8 27 9 -27 10 -52 1 -57 -1
-42 -12 17 -12 16 -18 -19 -92 -20 -43 -46 -102 -57 -129 -12 -28 -30 -66 -40
-84 -10 -18 -18 -40 -18 -48 0 -9 -5 -14 -12 -12 -12 4 -18 14 -37 61 -6 15
-16 39 -22 55 -7 15 -15 36 -19 47 -49 127 -63 162 -69 175 -10 20 -3 40 15
40 8 0 14 5 14 10 0 6 -25 10 -55 10 -30 0 -55 -4 -55 -10z"/>
<path d="M2660 2692 c-34 -17 -69 -68 -70 -105 0 -29 27 -74 61 -98 26 -18 40
-21 84 -16 43 4 53 3 49 -8 -6 -15 34 -41 44 -29 4 4 1 9 -5 11 -19 7 -16 41
12 123 28 83 31 102 11 75 -13 -18 -14 -17 -37 9 -25 29 -73 56 -98 56 -9 -1
-32 -9 -51 -18z m126 -33 c35 -33 34 -106 -2 -143 -35 -35 -96 -36 -138 -3
-25 20 -29 31 -29 72 0 42 4 52 33 78 28 25 39 28 72 24 22 -3 51 -16 64 -28z"/>
<path d="M1442 2580 c-26 -24 -29 -72 -7 -90 10 -9 31 -11 62 -6 77 10 111
-41 56 -84 -20 -16 -34 -19 -57 -14 -27 6 -29 5 -17 -10 17 -20 30 -20 70 0
38 19 55 48 47 80 -8 32 -41 47 -87 41 -40 -5 -79 13 -79 37 0 34 72 62 83 34
3 -7 6 -3 6 10 1 18 -4 22 -27 22 -16 0 -38 -9 -50 -20z"/>
<path d="M2980 2538 c-18 -13 -39 -40 -48 -61 -13 -35 -13 -42 4 -79 18 -41
64 -78 97 -78 9 0 17 5 17 10 0 6 -8 10 -19 10 -26 0 -66 34 -81 70 -10 24
-10 36 0 60 27 65 92 88 151 53 23 -14 29 -25 30 -53 0 -32 1 -33 10 -11 13
33 2 59 -34 82 -42 25 -87 24 -127 -3z"/>
<path d="M940 2525 c-11 -13 -8 -15 13 -15 21 0 47 -28 151 -161 102 -130 124
-164 115 -175 -22 -26 -2 -25 30 1 37 32 40 44 8 38 -18 -4 -30 5 -57 43 -52
73 -40 148 26 168 32 10 49 -1 93 -58 41 -53 51 -81 30 -88 -7 -2 -10 -9 -8
-16 2 -7 20 1 46 21 50 38 52 45 16 40 -23 -3 -34 4 -63 44 -48 64 -70 83 -96
83 -31 0 -84 -52 -84 -83 0 -14 -4 -28 -9 -32 -5 -3 -47 42 -92 100 -45 58
-87 105 -94 105 -7 0 -18 -7 -25 -15z"/>
<path d="M3214 2391 c-65 -28 -85 -124 -38 -180 14 -18 42 -35 65 -41 27 -7
39 -16 39 -28 0 -20 18 -42 34 -42 6 0 5 5 -1 11 -11 11 -7 38 6 49 14 11 101
118 101 122 0 3 -7 5 -17 4 -10 -1 -19 10 -24 30 -13 45 -51 76 -101 80 -24 2
-53 0 -64 -5z m130 -44 c34 -44 33 -84 -2 -127 -25 -29 -34 -33 -75 -33 -52 0
-78 17 -97 64 -10 23 -10 35 0 60 22 51 48 69 101 69 43 0 51 -4 73 -33z"/>
<path d="M830 2283 c0 -3 24 -28 52 -53 47 -42 51 -49 39 -64 -8 -9 -10 -20
-6 -24 4 -4 10 -1 12 6 9 25 40 10 108 -52 l70 -64 23 21 c30 28 28 43 -3 23
-24 -16 -25 -15 -90 45 -63 60 -65 63 -50 85 21 33 19 51 -4 26 -26 -30 -39
-28 -91 18 -43 38 -60 47 -60 33z"/>
<path d="M3540 2144 c0 -19 -8 -34 -24 -44 -12 -8 -45 -30 -71 -47 -45 -30
-49 -31 -61 -15 -12 16 -13 15 -14 -5 0 -13 3 -23 8 -23 4 0 15 -12 24 -27
l17 -28 1 28 c0 21 10 35 46 60 25 17 55 35 67 38 14 3 21 12 19 22 -2 9 2 17
8 17 15 0 12 26 -5 40 -13 11 -15 8 -15 -16z"/>
<path d="M3614 2049 c14 -17 26 -34 26 -37 -1 -28 -17 -55 -44 -71 -18 -11
-43 -29 -55 -41 -29 -24 -35 -25 -55 -4 -32 31 -18 -14 15 -48 23 -25 29 -28
25 -13 -7 25 0 35 44 65 95 64 112 105 64 154 -37 36 -52 33 -20 -5z"/>
<path d="M818 2013 c22 -9 12 -29 -24 -46 -105 -51 -66 -217 52 -217 75 0 124
51 124 130 0 19 5 30 13 29 28 -3 37 2 36 24 0 12 -3 16 -6 10 -8 -21 -29 -15
-109 32 -41 25 -81 45 -87 44 -8 0 -8 -2 1 -6z m75 -54 c37 -19 57 -52 57 -96
0 -34 -5 -46 -31 -67 -17 -14 -41 -29 -55 -32 -32 -8 -83 23 -106 65 -17 29
-18 38 -7 65 26 64 88 93 142 65z"/>
<path d="M3649 1805 c-38 -20 -60 -60 -61 -107 0 -40 25 -87 51 -96 8 -3 3 10
-10 27 -36 49 -32 105 9 142 42 38 89 39 131 3 25 -21 31 -34 31 -64 0 -29 -4
-39 -17 -42 -12 -2 -14 -6 -6 -11 6 -4 19 0 28 10 27 27 13 82 -31 121 -41 35
-81 41 -125 17z"/>
<path d="M410 1714 c0 -18 29 -61 98 -143 53 -64 103 -122 110 -129 7 -8 10
-17 7 -22 -5 -8 -76 -44 -214 -107 -89 -41 -111 -58 -111 -87 0 -20 1 -20 18
2 l18 24 75 -17 c92 -21 145 -32 184 -40 102 -21 115 -27 115 -54 l1 -26 14
25 c8 14 14 41 14 60 0 31 -1 32 -9 13 -11 -27 -20 -28 -108 -7 -37 8 -86 19
-109 25 -93 20 -133 32 -133 39 0 8 43 30 193 99 48 22 87 42 87 45 0 2 -43
55 -95 118 -93 112 -112 144 -77 135 9 -3 62 -15 117 -27 88 -19 148 -33 193
-46 8 -2 11 -11 7 -24 -3 -11 -2 -20 4 -20 10 0 15 13 26 68 4 20 3 32 -4 32
-6 0 -11 -7 -11 -16 0 -14 -8 -16 -52 -10 -29 4 -66 11 -83 15 -16 5 -57 14
-90 21 -145 31 -160 36 -163 59 -5 30 -22 26 -22 -5z"/>
<path d="M3718 1537 c-32 -27 -48 -57 -48 -92 0 -30 26 -85 40 -85 14 0 13 4
-11 45 -21 35 -21 38 -6 71 9 19 23 34 31 34 8 0 38 -34 67 -75 28 -41 56 -75
61 -75 15 0 33 22 47 57 40 98 -98 190 -181 120z m143 -26 c42 -42 38 -121 -6
-121 -11 0 -105 128 -105 143 0 4 18 7 41 7 31 0 47 -6 70 -29z"/>
<path d="M1805 1420 c-3 -5 3 -10 13 -10 11 0 23 -7 26 -16 3 -9 6 -100 6
-204 0 -196 -1 -202 -45 -213 -11 -2 12 -5 50 -5 58 0 65 1 43 10 l-28 10 0
178 c0 98 4 181 8 184 8 5 18 -6 126 -149 38 -49 72 -94 76 -98 4 -5 20 -1 34
8 25 17 28 17 46 0 11 -10 20 -26 20 -35 0 -9 4 -20 8 -25 5 -6 21 -41 37 -80
16 -38 39 -95 53 -125 13 -30 31 -71 39 -90 38 -89 35 -87 61 -28 14 29 35 77
48 106 13 29 24 55 24 57 0 3 9 27 21 53 12 26 26 58 31 72 26 62 33 76 47 93
8 9 22 17 33 17 10 0 18 5 18 10 0 6 -27 10 -60 10 -33 0 -60 -4 -60 -10 0 -5
6 -10 14 -10 32 0 25 -29 -44 -187 -6 -13 -14 -33 -19 -45 -5 -13 -18 -44 -30
-70 -12 -26 -21 -51 -21 -55 0 -5 -7 -16 -15 -26 -13 -18 -15 -15 -36 30 -46
101 -77 182 -71 187 3 3 33 6 66 7 53 0 57 2 33 11 l-27 10 2 206 c3 206 3
207 26 210 32 5 27 22 -7 22 -31 0 -24 7 -195 -217 -26 -34 -51 -65 -57 -69
-15 -9 -29 6 -139 152 -80 104 -108 134 -126 134 -12 0 -26 -4 -29 -10z m505
-250 c0 -153 -2 -179 -16 -184 -29 -11 -55 -6 -60 12 -4 9 -15 37 -26 61 -20
46 -18 71 7 71 8 0 15 5 15 10 0 6 -20 10 -45 10 -25 0 -45 2 -45 5 0 15 153
204 161 199 5 -3 9 -85 9 -184z"/>
<path d="M3862 1247 c-14 -6 -26 -25 -34 -51 -15 -55 -30 -70 -61 -62 -34 8
-51 56 -30 86 19 27 7 42 -13 16 -30 -41 -8 -106 42 -120 29 -9 54 14 74 65
18 47 48 62 76 39 19 -17 18 -57 -3 -69 -21 -12 -13 -24 11 -15 11 4 16 19 16
50 0 37 -4 45 -27 57 -21 11 -34 12 -51 4z"/>
<path d="M2840 953 c-21 -84 -47 -151 -76 -200 -42 -74 -169 -193 -244 -230
-72 -36 -153 -63 -187 -63 -20 0 -23 -5 -23 -35 0 -28 4 -35 19 -35 11 0 23 5
26 10 3 6 16 10 28 10 70 1 233 87 320 169 105 98 197 278 197 383 0 33 -3 38
-24 38 -20 0 -25 -8 -36 -47z"/>
<path d="M1574 968 c4 -12 11 -39 15 -58 5 -19 16 -55 25 -80 10 -25 20 -53
23 -62 3 -10 9 -18 14 -18 5 0 9 -5 9 -11 0 -47 202 -249 249 -249 6 0 11 -4
11 -10 0 -5 9 -10 20 -10 11 0 20 -4 20 -8 0 -7 70 -30 143 -48 24 -5 27 -3
27 20 0 22 -4 26 -28 26 -61 0 -233 89 -296 154 -97 98 -148 192 -183 336 -6
26 -15 36 -32 38 -21 3 -23 1 -17 -20z"/>
</g>
</svg>
